Coordinates
version=1
nRows=11
nColumns=40
inDegrees=yes

Units are S.I. units (second, meters, Newtons, ...)
If the header above contains a line with 'inDegrees', this indicates whether rotational values are in degrees (yes) or radians (no).

endheader
time	pelvis_tilt	pelvis_list	pelvis_rotation	pelvis_tx	pelvis_ty	pelvis_tz	hip_flexion_r	hip_adduction_r	hip_rotation_r	knee_angle_r	knee_angle_r_beta	ankle_angle_r	subtalar_angle_r	mtp_angle_r	hip_flexion_l	hip_adduction_l	hip_rotation_l	knee_angle_l	knee_angle_l_beta	ankle_angle_l	subtalar_angle_l	mtp_angle_l	lumbar_extension	lumbar_bending	lumbar_rotation	arm_flex_r	arm_add_r	arm_rot_r	elbow_flex_r	pro_sup_r	wrist_flex_r	wrist_dev_r	arm_flex_l	arm_add_l	arm_rot_l	elbow_flex_l	pro_sup_l	wrist_flex_l	wrist_dev_l
      3.00000000	    -17.62669401	      4.71145116	      5.32273252	     -0.42019556	      0.88266938	     -0.73007834	     52.00074331	     -5.45282137	     -8.43050550	     55.30962852	      0.96533513	      7.72382837	      0.00000000	      0.00000000	     64.41375945	     -3.26612799	     -9.67179161	     36.76931298	      0.64174558	    -17.73770489	      0.00000000	      0.00000000	     -5.21534381	     -1.44929449	     -4.77283462	     89.92700509	     -6.13492734	     23.66090002	     41.37477372	     83.37572032	      0.00000000	      0.00000000	     89.90664769	    -11.01512304	     25.75027711	     40.05590243	     85.39288692	      0.00000000	      0.00000000
      3.00500000	    -17.65729416	      4.73817138	      5.35340420	     -0.42054863	      0.88180245	     -0.73008653	     52.18429642	     -5.48569039	     -8.34102290	     55.56490299	      0.96979051	      7.87603554	      0.00000000	      0.00000000	     64.51889514	     -3.24980824	     -9.68291459	     36.79747161	      0.64223704	    -17.96029782	      0.00000000	      0.00000000	     -5.23357795	     -1.50084924	     -4.72194267	     89.92841061	     -6.40976614	     23.98566114	     41.66918510	     83.36323087	      0.00000000	      0.00000000	     89.90674714	    -10.72878862	     25.31321133	     39.90152926	     85.62048046	      0.00000000	      0.00000000
      3.01000000	    -17.68340321	      4.72363744	      5.37978133	     -0.42095947	      0.88086565	     -0.73011100	     52.37973603	     -5.50436393	     -8.33763615	     55.83027957	      0.97442220	      7.90065195	      0.00000000	      0.00000000	     64.64958192	     -3.27206815	     -9.67554343	     36.91976759	      0.64437150	    -17.96984339	      0.00000000	      0.00000000	     -5.24527017	     -1.47900188	     -4.76919694	     89.92826485	     -6.34165531	     23.78015048	     41.69374712	     84.12415593	      0.00000000	      0.00000000	     89.90718400	    -10.74596312	     25.28896316	     39.96362852	     85.38752073	      0.00000000	      0.00000000
      3.01500000	    -17.66507891	      4.66370217	      5.38862556	     -0.42116632	      0.88004269	     -0.73003269	     52.47083972	     -5.44451463	     -8.30831210	     56.03120830	      0.97792907	      8.05158513	      0.00000000	      0.00000000	     64.61520745	     -3.33056020	     -9.93565185	     36.77035906	      0.64176383	    -17.72444616	      0.00000000	      0.00000000	     -5.30218086	     -1.41048319	     -4.74241945	     89.92935950	     -6.32437478	     23.62447181	     41.69922523	     83.85715995	      0.00000000	      0.00000000	     89.90776762	    -10.67419548	     25.21032076	     39.96743790	     85.38165089	      0.00000000	      0.00000000
      3.02000000	    -17.72282606	      4.64656604	      5.41172132	     -0.42141849	      0.87902802	     -0.72996925	     52.67598142	     -5.42216617	     -8.26815745	     56.35900423	      0.98365019	      7.89018972	      0.00000000	      0.00000000	     64.77754264	     -3.38443707	     -9.95747597	     36.95039836	      0.64490611	    -17.69354325	      0.00000000	      0.00000000	     -5.27093396	     -1.38881105	     -4.74371598	     89.92961086	     -6.41261882	     23.68727159	     41.87564574	     83.81251540	      0.00000000	      0.00000000	     89.90814852	    -10.64307997	     25.11324551	     40.01396018	     85.37842717	      0.00000000	      0.00000000
      3.02500000	    -17.84480522	      4.62970683	      5.46261184	     -0.42186763	      0.87797785	     -0.73006145	     52.96073628	     -5.47373144	     -8.27618359	     56.52104905	      0.98647840	      8.26618607	      0.00000000	      0.00000000	     65.15082469	     -3.39916228	     -9.70048782	     37.39541179	      0.65267306	    -18.06669037	      0.00000000	      0.00000000	     -5.17613439	     -1.37333353	     -4.81903773	     89.92995618	     -6.30802946	     23.52052015	     41.97353462	     83.65895974	      0.00000000	      0.00000000	     89.90850977	    -10.64570708	     25.02393008	     40.04476121	     85.53512796	      0.00000000	      0.00000000
      3.03000000	    -17.95033396	      4.47542314	      5.50009259	     -0.42217373	      0.87721429	     -0.73045148	     53.16256187	     -5.39895077	     -8.35043626	     56.71213454	      0.98981347	      8.18427240	      0.00000000	      0.00000000	     65.43645589	     -3.43525689	     -9.48014583	     37.75410057	      0.65893336	    -17.49369554	      0.00000000	      0.00000000	     -5.28284324	     -1.68942566	     -4.30035276	     89.92823721	     -7.80865827	     23.87702297	     42.79825204	     84.11783147	      0.00000000	      0.00000000	     89.91313963	     -9.14967094	     24.06322585	     40.01071908	     85.19435709	      0.00000000	      0.00000000
      3.03500000	    -17.99278412	      4.41455559	      5.46279784	     -0.42247975	      0.87626370	     -0.73030503	     53.37155142	     -5.29500593	     -8.27601849	     57.01042377	      0.99501960	      8.09020550	      0.00000000	      0.00000000	     65.51418472	     -3.54969209	     -9.54193398	     37.58385159	      0.65596196	    -18.12886515	      0.00000000	      0.00000000	     -5.27852570	     -1.57828219	     -4.29426725	     89.92868808	     -7.67799371	     23.76963288	     42.90553950	     83.23649799	      0.00000000	      0.00000000	     89.91382741	     -9.36975232	     24.32274758	     40.15411339	     85.18270220	      0.00000000	      0.00000000
      3.04000000	    -18.09154656	      4.42799494	      5.53773687	     -0.42280056	      0.87525071	     -0.73041990	     53.58331698	     -5.43166121	     -8.36022612	     57.10181621	      0.99661470	      8.45508718	      0.00000000	      0.00000000	     65.78686695	     -3.51521016	     -9.54551109	     38.02734375	      0.66370235	    -17.43909585	      0.00000000	      0.00000000	     -5.20275923	     -1.63601652	     -4.33414620	     89.92916459	     -7.66210424	     23.42241572	     42.79929348	     83.39701734	      0.00000000	      0.00000000	     89.91430446	     -9.23317718	     24.16561346	     40.22369821	     85.42858423	      0.00000000	      0.00000000
      3.04500000	    -18.15870948	      4.45282386	      5.53230283	     -0.42315053	      0.87421754	     -0.73033293	     53.82572231	     -5.43963367	     -8.28540274	     57.35730140	      1.00107376	      8.53972905	      0.00000000	      0.00000000	     65.97685428	     -3.56525013	     -9.62016395	     38.20937120	      0.66687933	    -17.46168648	      0.00000000	      0.00000000	     -5.17953589	     -1.62382536	     -4.23196403	     89.93030058	     -7.81802533	     23.69113815	     43.03341706	     83.30637857	      0.00000000	      0.00000000	     89.91418803	     -9.05594620	     23.76340675	     40.14414830	     85.58668078	      0.00000000	      0.00000000
      3.05000000	    -18.23681569	      4.42946895	      5.55155935	     -0.42344954	      0.87328471	     -0.73037001	     54.03171786	     -5.45109081	     -8.29608204	     57.57131810	      1.00480906	      8.63291816	      0.00000000	      0.00000000	     66.14695591	     -3.58917105	     -9.64383990	     38.29907549	      0.66844497	    -17.45082238	      0.00000000	      0.00000000	     -5.14750082	     -1.64333047	     -4.21375382	     89.93060356	     -7.89787689	     23.54634235	     43.15614243	     83.87658094	      0.00000000	      0.00000000	     89.91475386	     -8.93484713	     23.66753429	     40.19443373	     85.28103292	      0.00000000	      0.00000000
